<?xml version="1.0" encoding="utf-8"?>
<!-- Generator: Adobe Illustrator 26.0.2, SVG Export Plug-In . SVG Version: 6.00 Build 0)  -->
<svg version="1.1" id="Layer_1" xmlns="http://www.w3.org/2000/svg" xmlns:xlink="http://www.w3.org/1999/xlink" x="0px" y="0px"
	 viewBox="0 0 376.6 52.6" style="enable-background:new 0 0 376.6 52.6;" xml:space="preserve">
<style type="text/css">
	.st0{fill:#FFFFFF;}
	.st1{fill:#0099FF;}
</style>
<path class="st0" d="M66.5,43.2V9H72v34.2H66.5z M80,43.2V7.7l21.7,20.9c0.6,0.6,1.2,1.2,1.8,1.9c0.6,0.7,1.2,1.4,1.9,2.3V9h5.1
	v35.6L88.4,23.3c-0.6-0.6-1.2-1.2-1.7-1.8c-0.6-0.6-1.1-1.3-1.6-2v23.8L80,43.2L80,43.2z M118.5,43.2V9h19.1v4.7H124v8.5h13.5v4.9
	H124v16.1H118.5z M148.8,27.9v15.3h-5.2V9h7.8c2.3,0,4,0.1,5.3,0.4c1.3,0.3,2.3,0.8,3.2,1.5c1.1,0.8,1.9,1.9,2.5,3.2
	s0.9,2.7,0.9,4.3c0,2.7-0.7,4.9-2,6.4c-1.3,1.6-3.3,2.5-5.9,2.8l11.8,15.6h-6.3l-11.4-15.3L148.8,27.9L148.8,27.9z M149.2,23.6h1
	c2.9,0,4.9-0.3,5.9-1s1.4-1.9,1.4-3.6c0-1.9-0.5-3.2-1.6-4c-1-0.8-3-1.2-5.8-1.2h-1v9.8H149.2z M193,43.2l-3.9-8.8h-13.6l-4,8.8
	h-5.8l16.6-35.6l16.5,35.6H193z M177.6,29.8h9.5l-3.5-7.8c-0.2-0.5-0.4-1.1-0.6-1.7c-0.2-0.6-0.4-1.4-0.7-2.2l-0.6,2.1l-0.6,1.8
	L177.6,29.8L177.6,29.8z M220.2,25.7h13.6v1c0,1.1,0.1,1.9,0.1,2.2c0,4.8-1.4,8.6-4.1,11.2s-6.6,4-11.7,4c-2.8,0-5.3-0.4-7.5-1.2
	s-4.1-2.1-5.8-3.7c-1.6-1.7-2.9-3.6-3.7-5.8c-0.9-2.2-1.3-4.6-1.3-7.2s0.4-5,1.3-7.2s2.2-4.1,3.9-5.8c1.7-1.6,3.6-2.9,5.9-3.7
	c2.2-0.9,4.6-1.3,7.2-1.3c2.7,0,5.1,0.5,7.2,1.5c2.1,1,4,2.5,5.7,4.5l-4.1,3.1c-1.2-1.3-2.5-2.3-3.9-3c-1.5-0.7-3.1-1-4.9-1
	c-3.7,0-6.7,1.2-9.1,3.6c-2.3,2.4-3.5,5.5-3.5,9.3c0,3.9,1.2,7,3.5,9.4c2.3,2.4,5.4,3.6,9.1,3.6c3.2,0,5.7-0.7,7.5-2.2
	s2.7-3.5,2.7-6.1v-0.5h-8.2v-4.7L220.2,25.7z M239.8,43.2V9h5.6v34.2H239.8z M251.4,36.4l4.4-2.1c0.4,1.5,1.2,2.7,2.3,3.5
	c1.1,0.8,2.6,1.2,4.3,1.2c1.7,0,3-0.5,3.9-1.4c1-0.9,1.5-2.1,1.5-3.7c0-2-1.7-3.8-5-5.4c-0.5-0.2-0.8-0.4-1.1-0.5
	c-3.8-1.8-6.3-3.5-7.5-5c-1.3-1.5-1.9-3.3-1.9-5.5c0-2.8,0.9-5,2.8-6.8c1.9-1.7,4.4-2.6,7.4-2.6c2.5,0,4.6,0.5,6.3,1.5
	c1.7,1,2.9,2.4,3.5,4.2L268,16c-0.7-1.1-1.4-1.9-2.3-2.4c-0.8-0.5-1.8-0.7-2.8-0.7c-1.5,0-2.7,0.4-3.6,1.2s-1.3,1.8-1.3,3.1
	c0,2.1,1.9,4,5.8,5.8c0.3,0.1,0.5,0.3,0.7,0.3c3.4,1.6,5.7,3.1,7,4.6s1.9,3.3,1.9,5.6c0,3.2-1,5.8-3.1,7.7s-4.8,2.9-8.3,2.9
	c-2.9,0-5.3-0.7-7.2-2C253.2,40.8,252,38.9,251.4,36.4L251.4,36.4z M290.7,13.7v29.5h-5.6V13.7H276V9h23.7v4.7
	C299.7,13.7,290.7,13.7,290.7,13.7z M304.1,43.2V9h5.6v34.2H304.1z M345.1,17.3c-1.6-1.3-3.2-2.3-5-3s-3.6-1-5.5-1
	c-3.7,0-6.8,1.2-9.1,3.6c-2.3,2.4-3.5,5.5-3.5,9.3c0,3.7,1.1,6.7,3.4,9.1s5.2,3.6,8.6,3.6c2,0,4-0.4,5.8-1.1
	c1.8-0.7,3.6-1.8,5.3-3.2V41c-1.5,1.1-3.1,1.9-4.9,2.4s-3.7,0.8-5.7,0.8c-2.6,0-5-0.4-7.3-1.3c-2.2-0.9-4.2-2.1-5.9-3.8
	c-1.7-1.6-2.9-3.6-3.8-5.8s-1.3-4.6-1.3-7.1s0.4-4.9,1.3-7.1s2.2-4.1,3.9-5.8c1.7-1.7,3.6-3,5.8-3.8c2.2-0.9,4.6-1.3,7.1-1.3
	c2,0,3.9,0.3,5.8,0.9c1.8,0.6,3.6,1.5,5.3,2.7L345.1,17.3L345.1,17.3z M350.1,36.4l4.4-2.1c0.4,1.5,1.2,2.7,2.3,3.5
	c1.1,0.8,2.6,1.2,4.3,1.2c1.7,0,3-0.5,3.9-1.4c1-0.9,1.5-2.1,1.5-3.7c0-2-1.7-3.8-5-5.4c-0.5-0.2-0.8-0.4-1.1-0.5
	c-3.8-1.8-6.3-3.5-7.5-5c-1.3-1.5-1.9-3.3-1.9-5.5c0-2.8,0.9-5,2.8-6.8c1.9-1.7,4.4-2.6,7.4-2.6c2.5,0,4.6,0.5,6.3,1.5
	c1.7,1,2.9,2.4,3.5,4.2l-4.3,2.2c-0.7-1.1-1.4-1.9-2.3-2.4c-0.8-0.5-1.8-0.7-2.8-0.7c-1.5,0-2.7,0.4-3.6,1.2s-1.3,1.8-1.3,3.1
	c0,2.1,1.9,4,5.8,5.8c0.3,0.1,0.5,0.3,0.7,0.3c3.4,1.6,5.7,3.1,7,4.6s1.9,3.3,1.9,5.6c0,3.2-1,5.8-3.1,7.7s-4.8,2.9-8.3,2.9
	c-2.9,0-5.3-0.7-7.2-2C351.9,40.8,350.6,38.9,350.1,36.4L350.1,36.4z M376.6,10.9c0,1.5-1.2,2.7-2.7,2.7s-2.8-1.2-2.8-2.7
	s1.2-2.7,2.8-2.7C375.4,8.2,376.6,9.4,376.6,10.9z M371.7,10.9c0,1.2,0.9,2.1,2.1,2.1s2-0.9,2-2.1s-0.9-2.2-2.1-2.2
	C372.6,8.8,371.7,9.7,371.7,10.9z M373.4,12.3h-0.6V9.6c0.2,0,0.6-0.1,1-0.1c0.5,0,0.7,0.1,0.9,0.2c0.1,0.1,0.3,0.3,0.3,0.6
	s-0.2,0.5-0.6,0.6c0.3,0.1,0.4,0.3,0.5,0.7s0.1,0.6,0.2,0.7h-0.7c-0.1-0.1-0.1-0.3-0.2-0.7c0-0.3-0.2-0.4-0.6-0.4h-0.3v1.1H373.4z
	 M373.4,10.8h0.3c0.3,0,0.6-0.1,0.6-0.4c0-0.2-0.2-0.4-0.6-0.4h-0.3C373.4,10,373.4,10.8,373.4,10.8z"/>
<path class="st1" d="M0,0h57.4v52.6H0V0z"/>
<path class="st0" d="M8.9,8.9h9.2V18H8.9V8.9z"/>
<path class="st0" d="M42.7,8.9H21.4V27H30v-9.2h9.3v16.9H17.8V21.3H8.9v16.6c0,3.2,2.6,5.7,5.7,5.7h33.7V14.7
	C48.4,11.5,45.8,8.9,42.7,8.9z"/>
</svg>
